<svg xmlns="http://www.w3.org/2000/svg" viewBox="0 0 211.76 50.57"><title>AliExpress logo</title><path d="M460.39,524.39V490.91h19.79v4.2H464.48V505.4h14.09v4.2H464.48v10.49h16.79v4.2H460.39Z" transform="translate(-406.12 -486.72)" style="fill:#e43225"/><path d="M502.06,524.39l-6.8-8.89-6.8,8.89h-4.8L493,512.5l-9.79-12.29h5.4l6.7,9.19,6.8-9.19h5.3l-9.29,12.29,8.79,11.89Z" transform="translate(-406.12 -486.72)" style="fill:#e43225"/><path d="M513.45,520.79v16.49h-4.1V512.6c0-6.3,4.8-13,12.29-13s13.29,4.8,13.29,12.69c0,7.7-5.8,13-12.39,13-3.2,0-7.5-1.4-9.09-4.5Zm17.19-8.49c0-5.4-3.5-8.59-9.69-8.29-3,.1-7.6,2.3-7.2,10a8.22,8.22,0,0,0,8.39,7.2C527,521.19,530.64,518.4,530.64,512.3Z" transform="translate(-406.12 -486.72)" style="fill:#e43225"/><path d="M538.44,524.39V500.21h4.1v2.6c2-2.3,5.1-3.1,8.39-3.1v4.4c-.5-.1-5.4-.7-8.39,5.7v14.69h-4.1Z" transform="translate(-406.12 -486.72)" style="fill:#e43225"/><path d="M552,512.3c0-7,5-12.69,11.89-12.69,8.59,0,11.79,5.7,11.79,13v2H556.52c.3,4.6,4.4,7,8.19,6.9a9,9,0,0,0,6.7-2.9l2.7,2.8a13.59,13.59,0,0,1-9.59,4c-7.3-.1-12.49-5.5-12.49-13.09Zm11.59-8.59a7.4,7.4,0,0,0-7.1,7.1h14.89C571.42,507.2,568.82,503.71,563.62,503.71Z" transform="translate(-406.12 -486.72)" style="fill:#e43225"/><path d="M577.81,521l3-2.7a13.54,13.54,0,0,0,1.7,1.7,5.1,5.1,0,0,0,2.3,1.2c2.6.7,7.3.5,7.7-3.1.2-2-1.3-3.1-3-3.8-2.2-.8-4.6-1.1-6.8-2.1-2.5-1.1-4.1-3-4.1-5.8,0-7.3,10.39-8.49,15.09-5.1.2.2,2.5,2.3,2.4,2.3l-3,2.4c-1.5-1.8-2.9-2.7-6.1-2.7-1.6,0-3.8.7-4.2,2.4-.6,2.4,2.1,3.3,3.9,3.8,2.4.6,5,1,7.1,2.3,2.9,1.8,3.6,5.7,2.5,8.69-1.2,3.3-4.8,4.6-8,4.7a12.37,12.37,0,0,1-9.79-3.7C578.31,521.49,577.81,521,577.81,521Z" transform="translate(-406.12 -486.72)" style="fill:#e43225"/><path d="M598.9,521l3-2.7a13.54,13.54,0,0,0,1.7,1.7,5.1,5.1,0,0,0,2.3,1.2c2.6.7,7.3.5,7.7-3.1.2-2-1.3-3.1-3-3.8-2.2-.8-4.6-1.1-6.8-2.1-2.5-1.1-4.1-3-4.1-5.8,0-7.3,10.39-8.49,15.09-5.1.2.2,2.5,2.3,2.4,2.3l-3,2.4c-1.5-1.8-2.9-2.7-6.1-2.7-1.6,0-3.8.7-4.2,2.4-.6,2.4,2.1,3.3,3.9,3.8,2.4.6,5,1,7.1,2.3,2.9,1.8,3.6,5.7,2.5,8.69-1.2,3.3-4.8,4.6-8,4.7a12.37,12.37,0,0,1-9.79-3.7C599.4,521.49,598.9,521,598.9,521Z" transform="translate(-406.12 -486.72)" style="fill:#e43225"/><path d="M432.6,524.39l-3-8H413.42l-3,8h-4.3l13-33.48h4.7l12.89,33.48Zm-11.29-28.68-6.1,16.59h12.69Z" transform="translate(-406.12 -486.72)" style="fill:#f7971d"/><path d="M439.4,524.39V490.91h4.2v33.48Z" transform="translate(-406.12 -486.72)" style="fill:#f7971d"/><path d="M449.89,524.39V500.71h4.2v23.68Z" transform="translate(-406.12 -486.72)" style="fill:#f7971d"/><path d="M458.09,493v-.4a6.11,6.11,0,0,1-5.9-5.9h-.6a6.11,6.11,0,0,1-5.9,5.9v.4a6.11,6.11,0,0,1,5.9,5.9h.6A6.11,6.11,0,0,1,458.09,493Z" transform="translate(-406.12 -486.72)" style="fill:#f7971d"/></svg>